<svg xmlns="http://www.w3.org/2000/svg" fill="none" viewBox="0 0 130 32" height="32" width="130">
<g clip-path="url(#clip0_8353_25397)">
<path fill="black" d="M8.57615 13.8182V20.4091C8.57615 20.9546 8.6216 21.3182 8.71251 21.5C8.75797 21.5909 8.89433 21.6818 9.1216 21.7273C9.34888 21.8182 9.80343 21.9091 10.4853 21.9546C11.1671 22 12.1216 22.0455 13.3035 22.0455V22.3182H0.666992V22.0455C1.667 22.0455 2.48519 22 3.12156 21.9546C3.75793 21.9091 4.21247 21.8182 4.43975 21.7273C4.66702 21.6364 4.80339 21.5455 4.84884 21.5C4.93975 21.3637 4.98521 21 4.98521 20.4091V5.36364C4.98521 4.81818 4.93975 4.5 4.84884 4.31818C4.80339 4.22727 4.71248 4.18182 4.4852 4.09091C3.93975 3.86364 2.62155 3.77273 0.666992 3.77273V3.5H12.0307C14.3489 3.5 16.1671 4.04546 17.5308 5.09091C18.8035 6.09091 19.4399 7.4091 19.4399 9.04546C19.4399 10.1364 18.9399 11.1818 17.9853 12.0909C16.758 13.2273 15.1217 13.7727 13.0762 13.7727H8.57615V13.8182ZM8.57615 13.5455H11.5307C13.1671 13.5455 14.3035 13.1364 14.9398 12.2727C15.4853 11.5455 15.758 10.4091 15.758 8.81819C15.758 7.13637 15.3944 5.9091 14.6671 5.04546C13.9398 4.18182 12.8489 3.77273 11.3034 3.77273H9.89434C9.48524 3.77273 9.16706 3.81818 8.98524 3.86364C8.80342 3.90909 8.66706 4.04546 8.6216 4.22727C8.6216 4.40909 8.57615 4.77273 8.57615 5.36364V13.5455Z"></path>
<path fill="black" d="M22.7613 16.3184C22.7613 18.4093 22.9886 19.9547 23.4886 20.8638C23.9886 21.8184 24.7613 22.2729 25.7613 22.2729C26.8522 22.2729 27.7613 21.9093 28.5795 21.182C29.5795 20.3184 30.0795 19.0911 30.0795 17.5911H30.3068C30.3068 19.0456 29.8523 20.2729 28.8977 21.182C27.9432 22.1366 26.7159 22.5911 25.1704 22.5911C23.8522 22.5911 22.6704 22.0911 21.6249 21.0911C20.3522 19.9093 19.7158 18.4093 19.7158 16.5002C19.7158 14.4547 20.3522 12.7729 21.5795 11.5002C22.6704 10.4093 23.8977 9.81836 25.2613 9.81836C26.5341 9.81836 27.5795 10.182 28.3977 10.9093C29.625 12.0002 30.2614 13.7729 30.2614 16.2729H22.7613V16.3184ZM27.7613 16.0002C27.7613 14.0911 27.5795 12.682 27.2613 11.682C26.9431 10.682 26.3977 10.182 25.625 10.182C24.5795 10.182 23.8068 10.6365 23.3977 11.5911C22.9431 12.5456 22.7613 14.0002 22.7613 16.0002H27.7613Z"></path>
<path fill="black" d="M36.5292 15.182V20.9547C36.5292 21.3638 36.5746 21.5911 36.6201 21.7275C36.6655 21.7729 36.7564 21.8638 36.8928 21.9093C37.0292 21.9547 37.3019 22.0002 37.6655 22.0457C38.0292 22.0911 38.3928 22.0911 38.6655 22.0911V22.3638H31.2109V22.0911C31.62 22.0911 32.0746 22.0911 32.4837 22.0457C32.8928 22.0002 33.2564 21.9093 33.62 21.8184C33.7564 21.7275 33.8019 21.4547 33.8019 20.9547V12.0456C33.8019 11.8638 33.8019 11.682 33.8019 11.5002C33.8019 11.3184 33.7564 11.182 33.6655 11.0911L33.4837 10.8184C33.3019 10.682 32.5291 10.5911 31.2564 10.5911V10.3184L36.5292 9.86381V13.5911C36.6655 12.7729 36.8928 12.0002 37.3019 11.3638C37.8474 10.4547 38.4383 10.0002 39.0292 9.90927C39.6201 9.86381 40.0292 9.81836 40.211 9.81836C41.4383 9.81836 42.3928 10.182 43.1201 10.9547C43.711 11.5911 44.0292 12.3184 44.0292 13.182V20.9547C44.0292 21.3638 44.0747 21.5911 44.1201 21.7275C44.1656 21.7729 44.2565 21.8638 44.3929 21.9093C44.5292 21.9547 44.8474 22.0002 45.2565 22.0457C45.6656 22.0911 46.0747 22.0911 46.4383 22.0911V22.3638H38.9383V22.0911C39.2565 22.0911 39.6201 22.0911 40.0292 22.0457C40.4383 22.0002 40.8019 21.9093 41.1201 21.8184C41.2565 21.7275 41.3019 21.4547 41.3019 20.9547V13.5002C41.3019 12.5456 41.211 11.8638 41.0747 11.3638C40.8019 10.5456 40.3474 10.1365 39.6656 10.1365C38.7565 10.1365 38.0292 10.682 37.4837 11.8184C37.0292 12.682 36.711 13.8184 36.5292 15.182Z"></path>
<path fill="black" d="M55.3034 16.1359V17.4995C55.3034 17.954 55.3034 18.3631 55.3489 18.7722C55.3489 20.1359 55.2125 21.0904 54.8943 21.5904C54.4852 22.2722 53.6216 22.6359 52.3943 22.6359C51.2125 22.6359 50.3488 22.3631 49.8034 21.7722C49.2579 21.2268 48.9852 20.4086 48.9852 19.3631V11.0449H46.667V10.7722C48.2579 10.3631 49.4852 9.45402 50.3034 7.99947C50.9398 6.81765 51.3034 5.49947 51.3034 4.04492H51.8034V10.2268H55.1671V11.0904H51.8034V19.0449C51.8034 20.0904 51.8489 20.7722 51.9398 21.0904C52.1216 21.8177 52.5761 22.1813 53.2125 22.1813C53.9852 22.1813 54.5307 21.7722 54.758 20.9086C54.9398 20.3177 55.0307 19.2268 55.0307 17.5904V16.1813H55.3034V16.1359Z"></path>
<path fill="black" d="M63.5744 13.8643V12.137C63.5744 11.3643 63.438 10.8188 63.2107 10.5461C62.9835 10.2733 62.438 10.137 61.6198 10.137C60.938 10.137 60.3471 10.2733 59.8471 10.5461C59.3471 10.8188 59.0289 11.137 58.8471 11.5915C58.938 11.5915 59.0289 11.5461 59.1198 11.5461C59.4834 11.5461 59.8016 11.6824 60.0289 12.0006C60.2562 12.2734 60.3925 12.637 60.3925 13.0006C60.3925 13.4097 60.2562 13.7734 59.938 14.0461C59.6652 14.3188 59.3016 14.4552 58.8925 14.4552C58.6198 14.4552 58.3925 14.3643 58.2107 14.2734C57.6198 13.9097 57.347 13.4552 57.347 12.8643C57.347 12.5915 57.3925 12.2734 57.5289 11.9097C57.8016 11.137 58.4834 10.5915 59.5743 10.2279C60.3471 9.95517 61.1653 9.86426 61.938 9.86426C63.3925 9.86426 64.4835 10.137 65.2107 10.6824C65.8926 11.1824 66.2107 11.7734 66.2107 12.5006V18.9552C66.2107 20.137 66.2562 20.8643 66.3017 21.137C66.438 21.8188 66.8017 22.137 67.3471 22.137C67.8471 22.137 68.2108 21.8643 68.3926 21.3643C68.5744 20.8188 68.6653 20.0915 68.6653 19.0915C68.6653 18.8188 68.6653 18.5461 68.6653 18.2734C68.6653 18.0006 68.6653 17.7279 68.6653 17.4097V17.137H69.0289V18.4097C69.0289 18.8188 69.029 19.2279 69.0744 19.5915C69.0744 20.7279 68.938 21.5006 68.6653 21.8643C68.3017 22.3643 67.5744 22.5916 66.5289 22.5916C65.6653 22.5916 65.0744 22.4552 64.6653 22.137C64.1653 21.7734 63.8471 21.1825 63.7107 20.3643C63.3016 21.3188 62.6653 21.9552 61.8471 22.2734C61.3471 22.4552 60.7107 22.5461 59.8925 22.5461C59.0743 22.5461 58.347 22.3643 57.7561 21.9552C56.9379 21.4097 56.4834 20.637 56.4834 19.5461C56.4834 18.5006 56.8925 17.5915 57.7107 16.8643C58.5289 16.1825 59.5289 15.7734 60.6652 15.6824C61.8471 15.5915 62.6198 15.4097 63.0289 15.2279C63.3925 15.0915 63.5744 14.5915 63.5744 13.8643ZM63.5289 19.1825V15.2734C63.3016 15.5915 62.938 15.7734 62.4834 15.8643C62.0289 15.9552 61.5743 16.0006 61.1653 16.0461C60.6198 16.1825 60.1652 16.5006 59.8016 17.0006C59.3925 17.5915 59.2107 18.4097 59.2107 19.4552C59.2107 20.5915 59.3016 21.3643 59.5289 21.7734C59.7562 22.1825 60.1198 22.3643 60.5743 22.3643C61.3016 22.3643 61.9834 22.0461 62.5744 21.4552C63.2107 20.7734 63.5289 20.0461 63.5289 19.1825Z"></path>
<path fill="black" d="M72.3424 17.4096C71.7061 17.0914 71.2515 16.6823 70.8879 16.1823C70.5242 15.6823 70.3424 15.0459 70.3424 14.3186C70.3424 13.0914 70.8879 12.0005 72.0243 11.1368C73.0697 10.3186 74.2061 9.95499 75.4334 9.95499C75.797 9.95499 76.2061 10.0004 76.6152 10.0914C77.0243 10.1823 77.3879 10.3186 77.7516 10.455V9.77318C77.7516 8.86408 77.9334 8.27317 78.2516 7.95499C78.5698 7.68226 79.0698 7.5459 79.7061 7.5459C79.9789 7.5459 80.2516 7.63681 80.4789 7.86408C80.7061 8.0459 80.7971 8.31863 80.7971 8.63681C80.7971 9.31863 80.4789 9.68227 79.8425 9.68227C79.1607 9.68227 78.8425 9.36408 78.8425 8.72772C78.8425 8.59135 78.8425 8.50045 78.8879 8.40954C78.9334 8.31863 78.9789 8.22772 79.0243 8.09135C78.6152 8.13681 78.3879 8.31863 78.2516 8.59135C78.1152 8.86408 78.0698 9.27317 78.0698 9.72772C78.0698 10.1368 78.1152 10.455 78.1152 10.6368C78.8879 11.0004 79.4789 11.5005 79.9334 12.0914C80.388 12.6823 80.5698 13.4095 80.5698 14.1823C80.5698 15.3641 80.0243 16.3641 78.8879 17.0914C77.8879 17.7732 76.7516 18.1368 75.4788 18.1368C74.5697 18.1368 73.7515 18.0005 72.9334 17.6823C72.2515 17.6823 71.7061 17.7732 71.297 18.0005C70.7515 18.2732 70.4788 18.7732 70.4788 19.455C70.4788 19.7277 70.7061 19.955 71.2061 20.1368C71.6606 20.3186 72.5697 20.4096 73.9334 20.4096H75.6152C77.3425 20.4096 78.6607 20.6368 79.5698 21.0914C80.7061 21.6823 81.2516 22.6368 81.2516 24.0005C81.2516 25.455 80.7516 26.5459 79.7061 27.3187C78.6607 28.0914 77.3425 28.5005 75.7061 28.5005C73.7515 28.5005 72.1606 28.1823 70.9788 27.5005C69.797 26.8641 69.2061 26.0914 69.2061 25.2732C69.2061 24.7277 69.5242 24.2732 70.1606 23.9096C70.6152 23.6368 71.297 23.4096 72.2515 23.1368C71.3879 22.8187 70.7515 22.5005 70.3424 22.1368C69.797 21.6368 69.4788 21.0005 69.4788 20.2277C69.4788 19.4096 69.7061 18.7277 70.2061 18.2277C70.7515 17.6368 71.4333 17.4096 72.3424 17.4096ZM75.8425 28.2277C77.1607 28.2277 78.1607 27.955 78.8879 27.4096C79.6152 26.8641 79.9789 26.1823 79.9789 25.4096C79.9789 24.455 79.6607 23.8187 79.0698 23.5005C78.4789 23.1823 77.3879 23.0005 75.797 23.0005C73.9788 23.0005 72.7061 23.2277 72.0243 23.6368C71.4788 24.0005 71.1606 24.5914 71.1606 25.455C71.1606 26.2732 71.3879 26.9096 71.8424 27.3187C72.6152 27.9096 73.9334 28.2277 75.8425 28.2277ZM77.9334 14.0459C77.9334 12.8186 77.7516 11.8641 77.4334 11.2732C77.0697 10.5459 76.3879 10.1823 75.4334 10.1823C74.5697 10.1823 73.9334 10.5459 73.5243 11.2277C73.1152 11.9095 72.9334 12.8641 72.9334 14.0459C72.9334 15.4095 73.1152 16.4095 73.4334 17.0005C73.7515 17.5914 74.4334 17.8641 75.4334 17.8641C76.3425 17.8641 76.9334 17.5459 77.3425 16.955C77.7516 16.3186 77.9334 15.3641 77.9334 14.0459Z"></path>
<path fill="black" d="M85.1669 11.8188C85.1669 11.4097 85.1215 11.1824 85.0306 11.0915C84.8942 10.9097 84.7578 10.7734 84.6669 10.7279C84.3033 10.637 83.5305 10.5915 82.2578 10.5915V10.3188L87.8942 9.86426V13.5915C87.9851 12.7734 88.2579 12.0461 88.7124 11.3188C89.3488 10.3643 90.167 9.86426 91.1215 9.86426C91.4852 9.86426 91.8943 10.0006 92.3033 10.2279C92.7124 10.4552 93.0306 10.7733 93.167 11.137C93.3034 11.5006 93.3943 11.8188 93.3943 12.137C93.3943 12.9097 93.0761 13.4552 92.4397 13.7279C92.3033 13.8188 92.0761 13.8643 91.8033 13.8643C91.3942 13.8643 91.0761 13.7279 90.8033 13.4552C90.5306 13.1824 90.3942 12.7734 90.3942 12.2279C90.3942 11.8643 90.5306 11.5461 90.8033 11.1824C91.0761 10.8188 91.3942 10.6824 91.7124 10.7734C91.5761 10.3643 91.2579 10.137 90.667 10.137C90.1215 10.137 89.5306 10.5461 88.9851 11.3643C88.2579 12.4097 87.8942 13.7734 87.8942 15.4552V20.9097C87.8942 21.3188 87.9397 21.5461 87.9851 21.6825C88.0306 21.7279 88.1215 21.8188 88.2579 21.8643C88.667 22.0006 89.5306 22.0916 90.8033 22.0916V22.3643H82.2578V22.0916C82.8033 22.0916 83.3487 22.0915 83.8033 22.0461C84.2578 22.0006 84.6669 21.9097 84.9851 21.8188C85.1215 21.7279 85.1669 21.4552 85.1669 20.9552V11.8188Z"></path>
<path fill="black" d="M101.352 13.8643V12.137C101.352 11.3643 101.215 10.8188 100.988 10.5461C100.761 10.2733 100.215 10.137 99.3971 10.137C98.7153 10.137 98.1244 10.2733 97.6244 10.5461C97.1244 10.8188 96.8062 11.137 96.6244 11.5915C96.7153 11.5915 96.8062 11.5461 96.8971 11.5461C97.2608 11.5461 97.579 11.6824 97.8062 12.0006C98.0335 12.2734 98.1699 12.637 98.1699 13.0006C98.1699 13.4097 98.0335 13.7734 97.7153 14.0461C97.4426 14.3188 97.0789 14.4552 96.6699 14.4552C96.3971 14.4552 96.1698 14.3643 95.988 14.2734C95.3971 13.9097 95.1244 13.4552 95.1244 12.8643C95.1244 12.5915 95.1698 12.2734 95.3062 11.9097C95.5789 11.137 96.2608 10.5915 97.3517 10.2279C98.1244 9.95517 98.9426 9.86426 99.7153 9.86426C101.17 9.86426 102.261 10.137 102.988 10.6824C103.67 11.1824 103.988 11.7734 103.988 12.5006V18.9552C103.988 20.137 104.034 20.8643 104.079 21.137C104.215 21.8188 104.579 22.137 105.124 22.137C105.624 22.137 105.988 21.8643 106.17 21.3643C106.352 20.8188 106.443 20.0915 106.443 19.0915C106.443 18.8188 106.443 18.5461 106.443 18.2734C106.443 18.0006 106.443 17.7279 106.443 17.4097V17.137H106.806V18.4097C106.806 18.8188 106.806 19.2279 106.852 19.5915C106.852 20.7279 106.715 21.5006 106.443 21.8643C106.079 22.3643 105.352 22.5916 104.306 22.5916C103.443 22.5916 102.852 22.4552 102.443 22.137C101.943 21.7734 101.624 21.1825 101.488 20.3643C101.079 21.3188 100.443 21.9552 99.6244 22.2734C99.1244 22.4552 98.488 22.5461 97.6699 22.5461C96.8517 22.5461 96.1244 22.3643 95.5335 21.9552C94.7153 21.4097 94.2607 20.637 94.2607 19.5461C94.2607 18.5006 94.6698 17.5915 95.488 16.8643C96.3062 16.1825 97.3062 15.7734 98.4426 15.6824C99.6244 15.5915 100.397 15.4097 100.806 15.2279C101.17 15.0915 101.352 14.5915 101.352 13.8643ZM101.261 19.1825V15.2734C101.034 15.5915 100.67 15.7734 100.215 15.8643C99.7608 15.9552 99.3062 16.0006 98.8971 16.0461C98.3517 16.1825 97.8971 16.5006 97.5335 17.0006C97.1244 17.5915 96.9426 18.4097 96.9426 19.4552C96.9426 20.5915 97.0335 21.3643 97.2608 21.7734C97.488 22.1825 97.8517 22.3643 98.3062 22.3643C99.0335 22.3643 99.7153 22.0461 100.306 21.4552C100.988 20.7734 101.261 20.0461 101.261 19.1825Z"></path>
<path fill="black" d="M119.761 13.4098C119.897 12.5007 120.124 11.8189 120.443 11.2734C120.943 10.4553 121.579 9.95526 122.443 9.86435C122.579 9.86435 122.715 9.86435 122.897 9.81889C123.079 9.81889 123.17 9.77344 123.261 9.77344C124.443 9.77344 125.443 10.1371 126.125 10.9098C126.715 11.5462 127.034 12.2734 127.034 13.1371V20.9098C127.034 21.2735 127.079 21.5462 127.125 21.6371C127.17 21.728 127.261 21.7735 127.397 21.8644C127.534 21.9098 127.806 21.9553 128.17 22.0007C128.534 22.0462 128.852 22.0462 129.125 22.0462V22.3189H122.215V22.0462C122.67 22.0462 123.034 22.0462 123.306 22.0007C123.579 21.9553 123.852 21.8644 124.125 21.728C124.261 21.6371 124.306 21.3644 124.306 20.9098V13.5007C124.306 12.5916 124.215 11.8643 124.079 11.3643C123.806 10.5462 123.352 10.1371 122.715 10.1371C122.034 10.1371 121.443 10.4553 120.988 11.0916C120.488 11.8189 120.079 13.1371 119.806 15.0462V20.9098C119.806 21.3189 119.852 21.5462 119.897 21.6825C119.943 21.728 120.034 21.7735 120.17 21.8644C120.306 21.9098 120.534 21.9553 120.897 22.0007C121.261 22.0462 121.579 22.0916 121.897 22.0916V22.3644H114.943V22.0916C115.67 22.0916 116.261 22.0462 116.67 21.8644L116.897 21.7735C117.034 21.6825 117.079 21.4098 117.079 20.9098V13.5007C117.079 12.5462 116.988 11.8643 116.852 11.3643C116.579 10.5462 116.124 10.1371 115.443 10.1371C114.579 10.1371 113.897 10.6825 113.397 11.8189C113.079 12.5916 112.806 13.728 112.624 15.1825V20.9553C112.624 21.3644 112.67 21.5916 112.715 21.728C112.761 21.7735 112.852 21.8644 112.988 21.9098C113.124 21.9553 113.397 22.0007 113.761 22.0462C114.124 22.0916 114.443 22.0916 114.715 22.0916V22.3644H107.261V22.0916C107.67 22.0916 108.079 22.0916 108.488 22.0462C108.897 22.0007 109.261 21.9098 109.624 21.8189C109.761 21.728 109.806 21.4553 109.806 20.9553V12.0916C109.806 11.9098 109.806 11.728 109.806 11.5462C109.806 11.3643 109.761 11.228 109.67 11.1371C109.533 10.9553 109.397 10.8189 109.306 10.7734C109.033 10.6825 108.352 10.6371 107.306 10.6371V10.3643L112.579 9.86435V13.5916C112.715 12.6371 112.943 11.9098 113.215 11.3643C113.67 10.4553 114.352 9.95526 115.215 9.86435C115.397 9.86435 115.579 9.81889 115.715 9.81889C115.852 9.81889 115.988 9.81889 116.034 9.81889C117.306 9.81889 118.215 10.1825 118.897 10.8643C119.443 11.5462 119.761 12.3644 119.761 13.4098Z"></path>
</g>
<defs>
<clipPath id="clip0_8353_25397">
<rect fill="white" height="32" width="129.791"></rect>
</clipPath>
</defs>
</svg>
