<svg xmlns="http://www.w3.org/2000/svg" fill="none" viewBox="0 0 180 32" height="32" width="180">
<path fill="black" d="M88.7374 6.26808C89.511 6.92918 90.2765 7.59686 91.0587 8.24757C91.4545 7.96951 91.7582 7.51593 92.2423 7.396C91.8962 7.7949 91.4584 8.10393 91.0616 8.44874C91.0457 12.7956 91.0613 17.1428 91.0538 21.4898C91.0368 22.1868 90.759 22.9273 90.1436 23.3071C89.5463 23.7485 88.7729 23.8879 88.045 23.8052C86.7631 23.6736 85.5612 23.151 84.2803 23.0171C83.1756 22.7846 81.9565 22.6004 80.8975 23.1001C80.4083 23.3557 79.9244 23.876 80.0665 24.4712C80.1929 25.0889 80.7819 25.5351 81.4122 25.4927C83.2703 25.4427 85.0642 24.8582 86.9044 24.646C87.8837 24.5399 88.9585 24.424 89.8487 24.9458C90.5247 25.2928 91.1759 25.8932 91.2237 26.6997C91.2639 27.5147 90.9716 28.3825 90.337 28.9204C89.7746 29.4097 89.0575 29.6807 88.337 29.8335C88.7158 29.5534 89.1163 29.229 89.2384 28.7505C89.3983 28.2211 89.0407 27.5459 88.4298 27.5913C86.3773 27.6591 84.4311 28.4723 82.3829 28.5942C81.6612 28.6187 80.9107 28.6094 80.2442 28.2974C79.3623 27.843 78.7055 26.9335 78.6153 25.938C78.5909 25.3705 78.5981 24.7653 78.8907 24.2593C79.2929 23.5493 80.0268 23.0917 80.7803 22.8286C80.7857 20.6193 80.7946 18.4109 80.7745 16.2017C80.2704 16.0628 79.5923 16.1324 79.294 16.6099C79.0724 17.0853 79.4546 17.5135 79.8302 17.7564C79.1597 17.6461 78.4383 17.2881 78.2227 16.5942C77.8948 15.8927 78.042 15.0462 78.5196 14.4497C78.9941 13.6879 79.9649 13.5552 80.7862 13.5425C80.785 12.2967 80.7883 11.0519 80.7862 9.80714C80.7767 9.39218 80.7526 8.94871 80.5128 8.59425C80.2326 8.15495 79.6087 7.99435 79.1407 8.19386C78.7142 8.4517 78.563 8.9743 78.4962 9.438C78.3404 8.68987 78.635 7.88481 79.1837 7.36378C79.78 6.78547 80.5628 6.33654 81.4171 6.36085C82.1376 6.41073 82.8848 6.67312 83.3624 7.23878C83.7454 7.68343 83.9338 8.2695 83.9454 8.85206C83.9475 13.4588 83.9398 18.0636 83.9483 22.6694C84.4821 22.7904 85.0225 22.8984 85.5616 23.0015C85.5658 17.5401 85.5592 12.079 85.5645 6.61768C85.5435 6.4725 85.6103 6.40333 85.7628 6.41065C85.7893 7.18321 85.7658 7.9545 85.7764 8.72706C86.7644 7.90783 87.7399 7.07563 88.7374 6.26808ZM18.9141 13.855C19.8428 13.0887 20.7793 12.332 21.6983 11.5552C22.4357 12.3202 23.1242 13.133 23.8839 13.8735C24.2045 13.6433 24.5338 13.4251 24.8702 13.2192C24.8097 13.6468 24.2976 13.7931 24.0323 14.0913C24.0355 15.5665 24.0322 17.0409 24.0333 18.5161C24.0545 19.6187 23.8962 20.7136 23.8634 21.815C23.8134 23.0099 23.3489 24.2319 22.4171 25.0161C21.6592 25.6932 20.6238 25.9373 19.6358 26.0191C19.6188 26.0424 19.5826 26.0905 19.5645 26.1148L19.5909 26.0278C19.2504 26.0278 18.9108 26.0152 18.5714 25.9898C18.9981 25.769 19.481 25.6273 19.8175 25.2622C20.2037 24.8313 20.6539 24.4204 20.8438 23.8569C21.1546 22.9975 21.1637 22.0713 21.1944 21.1694C21.1859 19.1478 21.2047 17.1246 21.1856 15.104C20.7356 14.5171 20.1964 13.9989 19.7188 13.4321C19.4578 13.7113 19.145 13.9465 18.921 14.2564C18.9029 16.3426 18.9185 18.43 18.9132 20.5161C19.1838 20.7857 19.4531 21.0574 19.7257 21.3247C19.9444 21.105 20.1633 20.8843 20.3819 20.6636C20.4308 20.7113 20.5274 20.8072 20.5763 20.855C19.5151 21.6848 18.4645 22.5273 17.4034 23.356C16.7316 22.7595 16.0753 22.1467 15.4141 21.5386C15.1925 21.704 14.9708 21.8714 14.7481 22.0357C14.7005 21.9858 14.6063 21.8863 14.5587 21.8364C15.0681 21.5085 15.5682 21.166 16.0723 20.8316C16.0713 17.1213 16.0713 13.4119 16.0723 9.70167C16.0616 9.41837 16.0755 9.11239 15.9259 8.85987C15.827 8.66699 15.6042 8.60545 15.4376 8.48878C15.4004 8.36584 15.5768 8.31418 15.6427 8.2378C16.7389 7.42063 17.8139 6.57327 18.9112 5.75929C18.9165 8.45705 18.9099 11.1562 18.9141 13.855ZM51.4932 5.5835C52.1255 6.69132 51.73 8.19263 50.7784 8.99073C50.1937 9.37171 49.5204 9.58211 48.8614 9.79542C48.8763 14.327 48.8633 18.8596 48.8653 23.3911C48.912 23.5979 48.7225 23.7605 48.5274 23.6782C48.1421 23.6602 48.0395 23.2538 47.8761 22.98C45.5052 18.6203 43.1607 14.2452 40.7706 9.89503C40.725 13.0948 40.7694 16.2978 40.7481 19.4985C41.8771 19.712 42.9763 20.2563 43.7149 21.1538C44.0576 20.8886 44.2797 20.4223 44.7188 20.3149C44.6074 20.5175 44.445 20.6842 44.2901 20.854C43.4359 21.7995 42.5837 22.7492 41.7305 23.6968C41.3349 23.1981 40.8075 22.7248 40.1475 22.6567C39.7135 22.6398 39.211 22.6626 38.8946 23.0054C38.5308 23.3302 38.2871 23.8777 38.547 24.3413C38.8516 25.0066 39.6176 25.187 40.2628 25.3462C39.4562 25.5054 38.553 25.4118 37.9024 24.8716C37.3846 24.4291 36.914 23.8675 36.7794 23.1821C36.598 22.2377 36.8804 21.1877 37.586 20.5181C38.3577 19.755 39.4898 19.4713 40.5489 19.5317C40.5776 18.1372 40.5643 16.7426 40.5548 15.3482C40.0401 15.2664 39.3386 15.3394 39.0987 15.8774C38.9597 16.3136 39.2868 16.6807 39.6104 16.9194C39.2093 16.8494 38.7634 16.7733 38.4737 16.4624C38.132 16.0411 37.8664 15.5433 37.7677 15.0064C37.669 14.3155 37.8508 13.5282 38.4259 13.0835C39.0276 12.6176 39.8292 12.5538 40.5636 12.5708V9.62257C40.2972 9.22256 40.0412 8.76416 39.5841 8.55714C39.2848 8.43297 38.8937 8.38811 38.6358 8.62159C38.2795 8.92396 38.1937 9.40456 38.0528 9.82569C37.916 8.79739 38.0188 7.6312 38.7393 6.82472C39.6096 5.6978 41.4505 5.65662 42.4024 6.69874C42.8142 7.12217 43.0968 7.64401 43.377 8.1587C45.1388 11.2958 46.8658 14.4531 48.6456 17.5796C48.6562 14.987 48.6607 12.3921 48.6427 9.79932C48.337 9.68061 47.9966 9.68389 47.6856 9.57569C47.1062 9.42287 46.6232 9.04937 46.1944 8.64503C45.927 8.95911 45.6575 9.27223 45.4083 9.60011C45.35 9.56831 45.2342 9.506 45.1759 9.47413C46.0886 8.32371 47.0667 7.22472 48.0167 6.10401C48.5143 6.62817 49.1639 7.05708 49.9044 7.10499C50.6776 7.01596 51.4389 6.39735 51.4932 5.5835ZM177.924 11.0698C178.31 11.42 178.274 12.0074 178.166 12.4732C177.875 13.5769 177.175 14.5102 176.479 15.3921C177.136 15.8675 177.771 16.3764 178.437 16.8433C178.469 18.1804 178.438 19.5218 178.449 20.8599C176.942 21.642 175.492 22.5288 174.114 23.521C173.772 23.0913 173.329 22.708 172.793 22.5552C172.276 22.4045 171.654 22.7556 171.527 23.2798C171.488 23.8338 172.047 24.1633 172.501 24.3257C172.136 24.4677 171.754 24.3033 171.44 24.1187C170.729 23.6932 170.385 22.8232 170.41 22.02C170.436 21.3131 170.849 20.7046 171.286 20.1782C171.712 19.6784 172.156 19.1938 172.607 18.7163C172.02 18.2027 171.402 17.725 170.803 17.2251C170.806 16.1704 170.803 15.1177 170.806 14.063C171.627 13.7202 172.445 13.3518 173.186 12.853C173.828 12.4222 174.474 11.9939 175.117 11.563C175.5 11.9493 175.944 12.3587 176.513 12.4097C177.056 12.4192 177.695 12.2132 177.93 11.6773C178.025 11.4831 178 11.265 177.924 11.0698ZM135.752 4.83546C136.055 4.84485 136.368 4.96722 136.669 4.99171C137.34 5.09251 137.989 5.4435 138.401 5.98878C138.926 6.87065 138.929 8.06343 138.386 8.93897C137.864 9.79118 136.881 10.2269 135.91 10.2896C135.933 11.3275 135.911 12.3669 135.921 13.4048C136.414 13.8548 136.943 14.2706 137.407 14.7524C136.903 15.1122 136.433 15.5156 135.932 15.8774C135.905 17.3579 135.93 18.8384 135.919 20.3189C136.804 19.6662 137.531 18.812 138.092 17.8696C138.265 17.5853 138.384 17.2687 138.588 17.0024C138.566 18.0615 138.39 19.1223 137.951 20.0933C137.543 21.2373 136.636 22.119 135.661 22.7993C134.183 23.6971 132.371 23.9408 130.682 23.6597C129.976 23.4465 129.299 23.1375 128.67 22.7544C127.355 21.9457 126.345 20.6786 125.771 19.2524C125.323 18.0374 125.204 16.7062 125.37 15.4243C125.808 12.8985 127.795 10.8424 130.124 9.89991C130.427 9.74503 130.772 9.75623 131.106 9.73292C130.773 9.80943 130.526 10.0415 130.283 10.2632C129.472 10.8118 128.868 11.6322 128.49 12.5288C130.144 11.8422 131.778 11.1082 133.425 10.4067C133.415 12.7446 133.442 15.0835 133.411 17.4214C132.434 17.8819 131.477 18.3824 130.507 18.8599C130.162 19.0403 129.796 19.1838 129.477 19.4067C130.257 20.243 131.284 20.949 132.459 21.0191C133.522 21.1667 134.676 21.005 135.553 20.3482C135.542 18.8625 135.552 17.3758 135.545 15.8911C135.04 15.5144 134.55 15.1191 134.051 14.7339C134.546 14.2839 135.047 13.8425 135.548 13.3999C135.544 12.3557 135.556 11.3122 135.54 10.2691C134.608 10.0972 133.719 9.75154 132.794 9.55518C131.428 9.23152 130.079 8.84326 128.697 8.58643C128.321 8.47713 127.876 8.47412 127.551 8.71925C127.226 8.98244 127.058 9.39392 126.996 9.79932C126.886 10.2078 127.269 10.4972 127.492 10.7837C126.809 10.7062 126.325 10.1139 126.086 9.51222C125.796 8.61021 125.872 7.5548 126.466 6.78761C126.926 6.09154 127.718 5.71821 128.498 5.49854C129.217 5.30969 129.964 5.45228 130.676 5.60401C132.062 5.92875 133.385 6.4673 134.743 6.88331C135.31 7.03719 135.941 7.15576 136.497 6.89893C136.807 6.7663 137.066 6.44075 137.007 6.08741C136.897 5.76057 136.686 5.44435 136.367 5.29151C136.01 5.11216 135.606 5.07393 135.224 4.98585C135.392 4.86492 135.57 4.82994 135.752 4.83546ZM11.4102 4.83546C11.7794 4.8179 12.1675 4.96249 12.5352 4.99464C13.1995 5.11464 13.7651 5.54589 14.2013 6.04249C14.6755 6.7429 14.5649 7.65953 14.3526 8.43311C14.0479 9.61824 12.7474 10.2144 11.6173 10.2739C11.6151 11.3108 11.6195 12.3512 11.6173 13.3892C12.118 13.8347 12.6165 14.2787 13.1182 14.7232C12.6291 15.1285 12.1225 15.5138 11.6173 15.8989C11.6121 17.375 11.6217 18.8506 11.6143 20.3267C12.7764 19.485 13.6277 18.2931 14.2677 17.0239C14.2952 17.8453 14.1739 18.6721 13.9063 19.4487C13.6177 20.2372 13.3246 21.0522 12.7423 21.6773C11.4081 23.1653 9.32782 23.9111 7.35067 23.7466C6.39575 23.7348 5.49913 23.3317 4.6661 22.9009C3.18243 22.1167 2.06302 20.7425 1.45809 19.1909C0.970022 17.7964 0.824613 16.2372 1.27449 14.811C1.94723 12.5654 3.73514 10.7241 5.90438 9.86768C6.18657 9.73609 6.50415 9.75877 6.80672 9.74073C5.64776 10.3287 4.67592 11.3181 4.19832 12.5396C5.85073 11.8338 7.49178 11.1019 9.14949 10.4067C9.13676 12.7437 9.1746 15.0806 9.12801 17.4165C7.80149 18.051 6.47961 18.7041 5.1827 19.396C5.95636 20.2503 7.00533 20.9534 8.1866 21.0191C9.29868 21.1496 10.5229 21.0353 11.4366 20.3296C11.4101 18.8482 11.4512 17.3668 11.4151 15.8853C10.8569 15.5064 10.2999 15.1274 9.75985 14.7232C10.3148 14.287 10.8554 13.832 11.421 13.4097C11.4369 12.3625 11.4369 11.3163 11.421 10.2691C10.5444 10.1099 9.69646 9.83066 8.83895 9.59718C7.30756 9.28622 5.81111 8.82406 4.27547 8.53858C3.87114 8.47598 3.38423 8.52321 3.11043 8.8628C2.62681 9.39029 2.71583 10.2706 3.1827 10.7778C2.39421 10.6696 1.84887 9.90585 1.6993 9.17042C1.56547 8.24074 1.81135 7.21088 2.48738 6.53272C3.21965 5.79419 4.25727 5.28425 5.31844 5.42433C7.29973 5.65467 9.12349 6.53937 11.0518 6.99464C11.6206 7.14216 12.2857 6.99731 12.6729 6.53565C12.8777 6.34461 12.9412 6.01003 12.7364 5.79249C12.3277 5.20274 11.5693 5.11529 10.922 4.98585C11.0791 4.88549 11.2425 4.84352 11.4102 4.83546ZM114.559 5.60206C114.569 10.4988 114.549 15.3968 114.569 20.2935C114.845 20.6691 115.222 20.978 115.557 21.3081C115.767 21.0832 115.985 20.8674 116.201 20.6499C116.252 20.7007 116.354 20.8032 116.406 20.853C115.386 21.7369 114.398 22.6552 113.372 23.5298C112.726 22.8665 112.057 22.2266 111.416 21.5601C111.129 21.8158 110.865 22.096 110.595 22.3687C110.54 22.3262 110.429 22.2401 110.374 22.1978C110.863 21.7299 111.387 21.3011 111.882 20.8374C111.878 17.1263 111.885 13.4147 111.878 9.7046C111.866 9.01056 111.513 8.17952 110.736 8.09327C112.01 7.2634 113.281 6.42556 114.559 5.60206ZM121.356 11.5698C121.238 12.475 120.936 13.4152 120.241 14.0444C119.635 14.6005 118.716 14.7341 117.953 14.4624C117.503 14.3096 117.087 14.0698 116.715 13.7759C116.649 13.9308 116.594 14.091 116.555 14.2544C118.106 16.5913 119.631 18.9501 121.155 21.3062C121.505 21.0791 121.812 20.7922 122.121 20.5132C122.182 20.5514 122.301 20.6275 122.361 20.6655C121.265 21.643 120.134 22.5812 119.01 23.5278C117.565 21.2134 116.153 18.8787 114.691 16.5747C115.785 14.8969 116.901 13.2336 118.022 11.5728C118.507 11.9851 119.107 12.2405 119.74 12.3052C120.36 12.3062 120.889 11.9381 121.356 11.5698ZM152.121 11.729C152.787 12.442 153.439 13.1668 154.11 13.8745C155.052 13.1613 155.982 12.4336 156.93 11.73C157.577 12.4516 158.245 13.1554 158.899 13.8706C159.3 13.6149 159.669 13.3081 160.077 13.063C160.108 13.3005 159.892 13.409 159.741 13.5405C159.523 13.7167 159.31 13.9016 159.092 14.0767C159.074 16.0526 159.096 18.0286 159.08 20.0044C159.457 20.3953 159.841 20.7789 160.232 21.1548C160.439 20.9395 160.652 20.728 160.854 20.5073C160.914 20.5456 161.036 20.6215 161.097 20.6597C160.107 21.635 159.085 22.5802 158.068 23.5278C157.352 22.6821 156.601 21.864 155.901 21.0034C156.071 20.8474 156.237 20.6843 156.4 20.521C156.403 18.8166 156.4 17.1119 156.4 15.4087C155.859 14.8051 155.32 14.1996 154.762 13.6118C154.6 13.7763 154.439 13.9396 154.279 14.105C154.277 16.2358 154.288 18.3667 154.274 20.4976C154.543 20.799 154.845 21.0693 155.118 21.3696C154.385 22.0201 153.678 22.7011 152.949 23.3579C152.268 22.6416 151.597 21.9154 150.938 21.1792C151.125 20.9479 151.502 20.7803 151.443 20.4282C151.435 18.7663 151.452 17.1027 151.435 15.4419C150.98 14.8094 150.471 14.1969 149.944 13.6196C149.791 13.7831 149.635 13.9438 149.478 14.104C149.482 16.1681 149.466 18.2333 149.485 20.2974C149.708 20.6771 150.041 20.988 150.317 21.3306C149.605 22.0788 148.87 22.8065 148.128 23.5249C147.419 22.6802 146.684 21.8575 145.97 21.0181C146.193 20.845 146.418 20.6744 146.642 20.5015C146.635 18.7577 146.629 17.0127 146.645 15.2691C146.227 14.7512 145.768 14.2669 145.329 13.7671C145.017 13.9984 144.742 14.2892 144.386 14.4526C144.369 14.2907 144.528 14.2132 144.629 14.1148C145.532 13.3241 146.417 12.5133 147.325 11.729C147.977 12.4473 148.65 13.1456 149.29 13.8745C150.25 13.1815 151.171 12.4369 152.121 11.729ZM141.192 11.728C141.864 12.4921 142.517 13.2733 143.186 14.0405C143.533 13.7689 143.844 13.447 144.228 13.2232C144.199 13.3449 144.166 13.4706 144.053 13.5396C143.765 13.7783 143.479 14.0191 143.19 14.2515C143.194 16.2306 143.181 18.2088 143.196 20.188C143.574 20.6146 143.965 21.0331 144.317 21.4829C144.611 21.3037 144.857 21.0583 145.137 20.8589C145.196 20.8907 145.316 20.9532 145.375 20.9839C144.442 21.8584 143.474 22.6972 142.502 23.5259C141.856 22.7491 141.192 21.9843 140.531 21.2192C140.244 21.4803 140.004 21.7968 139.689 22.0239C139.644 21.9825 139.555 21.8974 139.511 21.855C139.791 21.5897 140.056 21.3076 140.34 21.0444C140.351 20.1454 140.351 19.2458 140.35 18.3462V15.4546C140.356 15.2564 140.365 15.0525 140.219 14.9028C139.873 14.473 139.554 14.0206 139.186 13.6099C138.912 13.8317 138.652 14.0731 138.349 14.2524C139.283 13.3971 140.249 12.5738 141.192 11.728ZM111.091 11.7251C111.092 12.5369 110.905 13.3906 110.368 14.021C109.753 14.7575 108.588 14.9734 107.765 14.4683C107.448 14.3144 107.238 14.0189 106.943 13.8374C106.951 16.0575 106.947 18.2765 106.945 20.4966C107.383 20.833 107.822 21.1693 108.272 21.4898C108.598 21.2754 108.85 20.8804 109.263 20.8433C108.293 21.7665 107.276 22.6452 106.265 23.5249C105.505 22.8085 104.727 22.11 103.976 21.3853C103.683 21.6483 103.413 21.9355 103.134 22.2124C103.089 22.1604 103 22.0573 102.955 22.0054C103.323 21.5957 103.735 21.226 104.111 20.8237C104.098 18.9241 104.119 17.024 104.102 15.1255C103.9 14.646 103.55 14.2303 103.296 13.772C102.949 13.9768 102.696 14.4034 102.265 14.4185C103.246 13.5111 104.272 12.6523 105.248 11.7398C105.855 12.2927 106.366 12.944 106.93 13.5415C107.543 12.9536 108.142 12.348 108.734 11.7378C109.165 12.0137 109.615 12.402 110.168 12.2905C110.557 12.2638 110.76 11.8811 111.091 11.7251ZM61.2804 9.39698C60.9058 9.69299 60.4898 10.0371 60.4386 10.5474C60.3547 11.0037 60.6441 11.4152 60.9805 11.689C61.5928 12.1791 62.3793 12.4534 62.878 13.0816C63.1177 13.385 63.2626 13.7694 63.252 14.1587C63.2489 16.2174 63.2544 18.2749 63.2491 20.3325C63.7965 20.775 64.3463 21.2123 64.8927 21.6548C65.0518 21.5519 65.2118 21.4493 65.3721 21.3462C65.3647 19.0995 65.3836 16.8516 65.3624 14.606C65.0813 14.2738 64.6919 14.0358 64.3702 13.7398C65.1596 13.0129 65.933 12.2669 66.7384 11.5581C67.4387 12.2458 68.1752 12.8964 68.8936 13.5649C68.621 13.8534 68.3409 14.1347 68.0528 14.4077C68.0475 16.3827 68.0521 18.3576 68.0489 20.3325C68.7663 20.8886 69.4843 21.446 70.2091 21.9937C70.3109 21.9342 70.4137 21.8762 70.5186 21.8179C70.5079 19.4057 70.5203 16.9938 70.5128 14.5816C70.1806 14.2982 69.8368 14.0274 69.5089 13.7388C70.2835 13.0066 71.0679 12.2869 71.8468 11.5601C72.6225 12.1671 73.3996 12.7749 74.171 13.3872C74.4385 13.0922 74.7121 12.7984 75.0177 12.5405C75.0569 12.5968 75.1376 12.7109 75.1768 12.7671C74.5168 13.355 73.8606 13.9499 73.2208 14.5601C73.1655 16.4831 73.2199 18.4133 73.1944 20.3374C71.5145 21.4411 69.7601 22.4481 68.0557 23.522C67.1567 22.8778 66.2829 22.1986 65.3956 21.5396C64.5997 22.1795 63.8023 22.8201 63.0011 23.4536C62.8865 23.5809 62.7693 23.3954 62.6749 23.3423C61.9255 22.7406 61.1808 22.1332 60.422 21.5454C60.1036 21.8234 59.7687 22.0838 59.4493 22.3618C59.3983 22.313 59.299 22.2162 59.2481 22.1685C59.6375 21.8991 60.0189 21.6157 60.4083 21.3462C60.4105 19.4816 60.4105 17.618 60.4083 15.7534C60.4072 15.2546 60.2314 14.7497 59.8907 14.3804C59.5161 13.9739 59.0122 13.6879 58.7139 13.2114C58.384 12.6575 58.3543 11.9708 58.4805 11.3521C58.6653 10.6529 59.2207 10.1199 59.8106 9.7378C60.2404 9.44294 60.7837 9.46064 61.2804 9.39698ZM56.1348 11.5581C56.8426 12.9068 57.6207 14.2244 58.2862 15.5933C56.8418 16.6588 55.4452 17.7901 54.004 18.8599C54.0156 19.1114 53.8868 19.4315 54.1055 19.6235C54.7816 20.2997 55.4556 20.977 56.1348 21.6509C57.0009 20.9526 57.8538 20.2365 58.7325 19.5552C58.8651 19.4248 59.0356 19.7614 58.8282 19.8042C57.2065 21.0427 55.5996 22.3027 53.962 23.5191C53.0865 22.6956 52.2042 21.8773 51.335 21.0464C50.9902 21.2597 50.6577 21.4913 50.3214 21.7173C50.2895 21.661 50.2233 21.5479 50.1915 21.4917C50.4951 21.2476 50.8405 21.064 51.1524 20.8316C51.1439 18.6835 51.1527 16.5343 51.1495 14.3862C52.162 13.8652 53.2102 13.4101 54.1768 12.8052C54.838 12.404 55.4886 11.9837 56.1348 11.5581ZM31.3165 11.561C32.0297 12.894 32.7422 14.2261 33.4786 15.5464C32.0038 16.6722 30.506 17.7687 29.0089 18.8648C29.0269 19.1216 28.8875 19.4665 29.1358 19.648C29.8649 20.3091 30.5726 20.9929 31.3038 21.6509C32.1888 20.9443 33.0578 20.2113 33.9513 19.5151L34.1505 19.6899C32.545 20.9326 30.9238 22.1582 29.3194 23.4019C29.2717 23.4263 29.1776 23.4762 29.1309 23.5005C28.1834 22.7067 27.2868 21.8515 26.337 21.062C26.0546 21.2509 25.7999 21.4769 25.543 21.6987C25.4857 21.6637 25.3728 21.5949 25.3155 21.561C25.6127 21.2701 25.9945 21.0873 26.3214 20.8335C26.3129 18.6845 26.3187 16.5353 26.3155 14.3862C27.0818 14.001 27.8553 13.6269 28.6163 13.23C29.514 12.6708 30.3997 12.0916 31.3165 11.561ZM167.182 11.563C167.912 12.8926 168.632 14.2278 169.35 15.5659C167.86 16.6705 166.376 17.7839 164.874 18.8716C164.864 19.0926 164.864 19.3147 164.876 19.5357C165.662 20.2224 166.408 20.9521 167.18 21.6558C167.934 21.0466 168.685 20.4342 169.438 19.8218C169.625 19.6868 169.839 19.369 170.026 19.6978C168.424 20.9267 166.819 22.1521 165.219 23.3853C165.133 23.4404 165.009 23.5796 164.924 23.4439C164.036 22.6426 163.12 21.8721 162.244 21.0581C161.93 21.2449 161.668 21.5009 161.377 21.7163C161.334 21.6633 161.245 21.5545 161.201 21.5015C161.539 21.2827 161.873 21.0554 162.21 20.8325C162.205 18.6857 162.216 16.5361 162.205 14.3882C163.184 13.8471 164.241 13.4481 165.163 12.8071C165.829 12.3838 166.507 11.9736 167.182 11.563ZM101.147 14.2085C101.415 13.9921 101.686 13.7787 101.953 13.5591C102.011 13.557 102.123 13.5514 102.179 13.5503C101.899 13.8432 101.608 14.129 101.321 14.4155C101.318 16.5169 101.335 18.617 101.311 20.7173C99.723 21.474 98.2666 22.4665 96.7257 23.3091C96.5718 23.3646 96.3933 23.5916 96.2354 23.439C95.2771 22.642 94.3261 21.836 93.3614 21.0464C93.1514 21.2585 92.9391 21.4705 92.7354 21.688C92.677 21.6921 92.5604 21.7004 92.502 21.7036C92.7811 21.4109 93.0719 21.1258 93.3595 20.8394C93.3573 18.5851 93.3718 16.3298 93.3516 14.0757C94.211 13.6895 95.093 13.3395 95.9005 12.8472C96.5881 12.4014 97.2882 11.9758 97.9971 11.563C99.0498 12.4396 100.096 13.3276 101.147 14.2085ZM86.9356 15.7368C86.4613 15.7305 86.077 16.0514 85.7735 16.3814C85.7831 18.6451 85.7577 20.9126 85.7843 23.1763C86.2533 23.2017 86.7778 23.191 87.1641 22.8843C87.5641 22.5786 87.9305 22.1239 87.8966 21.5923C87.8977 19.8593 87.8935 18.1251 87.8966 16.3921C87.679 16.061 87.3559 15.7474 86.9356 15.7368ZM96.2003 19.8599C96.9674 20.5519 97.7057 21.2743 98.4825 21.9556C98.4825 19.7196 98.4799 17.4845 98.4874 15.2485C97.7296 14.5344 96.958 13.8326 96.2003 13.1206V19.8599ZM174.626 17.0767C173.964 17.7856 173.266 18.4578 172.567 19.1304C171.956 19.7524 171.306 20.3724 170.903 21.1577C171.185 20.8458 171.482 20.5383 171.854 20.3325C172.664 19.8264 173.761 19.8565 174.558 20.3774C175.107 20.7257 175.497 21.2729 175.757 21.8608C175.785 20.7115 175.76 19.5581 175.77 18.4087C175.747 18.258 175.825 18.0589 175.666 17.9634C175.318 17.6682 174.974 17.3696 174.626 17.0767ZM130.422 11.9507C129.77 12.2786 129.121 12.6082 128.463 12.9224C127.896 14.0483 127.831 15.371 128.076 16.5913C128.298 17.5231 128.729 18.3993 129.283 19.1782C129.665 19.0169 130.044 18.8473 130.427 18.687C130.422 16.4415 130.435 14.1963 130.422 11.9507ZM6.12215 11.9536C5.47068 12.2698 4.8314 12.6056 4.17781 12.9165C3.83184 13.8494 3.64623 14.8567 3.6993 15.8511C3.89457 17.0291 4.31874 18.1895 5.00008 19.1753C5.3692 19.012 5.73874 18.8511 6.11434 18.7036C6.13556 16.4537 6.11791 14.2035 6.12215 11.9536ZM164.865 13.1841C164.861 14.9595 164.873 16.7359 164.86 18.5112C165.629 17.9774 166.38 17.4169 167.152 16.8872C166.391 15.6521 165.677 14.3842 164.865 13.1841ZM29.003 13.145C28.9892 14.9311 28.9935 16.7184 29.0011 18.5044C29.7544 17.959 30.5096 17.4163 31.2716 16.8804C30.5223 15.6303 29.7607 14.3898 29.003 13.145ZM53.9854 13.187C54.0014 14.954 53.9683 16.7228 54.0011 18.4888C54.7026 17.9614 55.387 17.4101 56.0948 16.8911C55.4092 15.6473 54.7283 14.3969 53.9854 13.187ZM173.488 13.0757C173.485 14.0647 173.495 15.0554 173.482 16.0444C173.793 16.3798 174.132 16.6907 174.446 17.0239C175.608 16.0604 176.732 14.9842 177.457 13.6441C176.927 14.2265 176.144 14.6641 175.337 14.4741C174.526 14.3424 173.935 13.7176 173.488 13.0757ZM85.7735 15.9888C86.1099 15.7352 86.5078 15.5311 86.9405 15.5405C87.3089 15.5395 87.6397 15.7383 87.8966 15.9888C87.8944 15.368 87.8944 14.7443 87.8966 14.1235C87.2642 14.5523 86.4252 14.4527 85.7735 14.1216C85.7725 14.7443 85.7756 15.3671 85.7735 15.9888ZM85.7735 8.94776C85.7746 10.5459 85.7756 12.1435 85.7735 13.7417C86.1524 14.0527 86.6425 14.3019 87.1456 14.1958C87.4543 14.1564 87.6854 13.936 87.8966 13.728C87.8934 12.3592 87.8976 10.9904 87.8966 9.62159C87.4519 9.23635 87.0122 8.84642 86.5665 8.46436C86.3035 8.62882 86.0389 8.78861 85.7735 8.94776ZM141.221 7.25636C141.815 7.88354 142.441 8.48053 143.045 9.09815C142.32 9.77627 141.591 10.4492 140.857 11.1167C140.302 10.4387 139.731 9.77653 139.184 9.09327C139.871 8.49047 140.518 7.84218 141.221 7.25636Z"></path>
</svg>
